<svg id="Layer_1" enable-background="new 0 0 512 512" height="512" viewBox="0 0 512 512" width="512" xmlns="http://www.w3.org/2000/svg"><path d="m494.5 108.552h-224.616v54.552h11.864c8.835 0 15.995 7.008 15.995 15.649v18.943c0 8.643-7.16 15.65-15.995 15.65h-12.695c-4.617 31.043-28.211 55.981-58.76 62.929v18.94h71.871c21.241 0 38.525 17.065 38.525 38.037v54.122h-275.683v-54.122c0-20.973 17.285-38.037 38.528-38.037h71.868v-18.94c-30.549-6.948-54.144-31.887-58.761-62.929h-12.693c-8.833 0-15.996-7.007-15.996-15.65v-18.943c0-8.642 7.164-15.649 15.996-15.649h11.862v-54.552h-78.31c-5.5 0-10 4.5-10 10v342.902c0 5.5 4.5 10 10 10h477c5.5 0 10-4.5 10-10v-342.902c0-5.5-4.5-10-10-10z" fill="#8c9ba7"/><path d="m83.534 295.216h71.868v-18.94c-30.549-6.948-54.144-31.887-58.761-62.929h-12.693c-8.833 0-15.996-7.007-15.996-15.65v-18.943c0-8.642 7.164-15.649 15.996-15.649h11.862v-54.552h-78.31c-5.5 0-10 4.5-10 10v268.823h37.506v-54.122c0-20.974 17.285-38.038 38.528-38.038z" fill="#01cffa"/><path d="m494.5 108.552h-224.616v54.552h11.864c8.835 0 15.995 7.008 15.995 15.649v18.943c0 8.643-7.16 15.65-15.995 15.65h-12.695c-4.617 31.043-28.211 55.981-58.76 62.929v18.94h71.871c21.241 0 38.525 17.065 38.525 38.037v54.122h183.811v-268.822c0-5.5-4.5-10-10-10z" fill="#01cffa"/><path d="m281.748 163.104h-11.864v-11.324c0-47.334-38.967-64.994-87.035-64.994-48.071 0-87.038 17.66-87.038 64.994v11.323h-11.863c-8.833 0-15.996 7.008-15.996 15.649v18.943c0 8.643 7.164 15.65 15.996 15.65h12.693c4.617 31.042 28.211 55.981 58.761 62.929v27.993c0 15.226 12.288 27.568 27.445 27.568s27.445-12.343 27.445-27.568v-27.993c30.549-6.948 54.143-31.887 58.76-62.929h12.695c8.835 0 15.995-7.007 15.995-15.65v-18.943c.001-8.641-7.159-15.648-15.994-15.648z" fill="#ffcdbe"/><path d="m182.849 40.546c-48.071 0-87.038 17.66-87.038 64.994v46.24c0-47.334 38.967-64.994 87.038-64.994 48.068 0 87.035 17.66 87.035 64.994v-46.24c0-47.334-38.967-64.994-87.035-64.994z" fill="#fda613"/><path d="m282.163 295.216h-71.871v9.053c0 15.226-12.288 27.568-27.445 27.568s-27.445-12.343-27.445-27.568v-9.053h-71.868c-21.243 0-38.528 17.065-38.528 38.037v54.122h275.682v-54.122c.001-20.973-17.284-38.037-38.525-38.037z" fill="#fff"/><path d="m38 461.454v-74.079h-30.5v74.079c0 5.5 4.5 10 10 10h30.5c-5.5 0-10-4.5-10-10z" fill="#798b97"/><path d="m281.748 163.104h-11.864v-11.324c0-47.334-38.967-64.994-87.035-64.994-48.071 0-87.038 17.66-87.038 64.994v11.323h-11.863c-8.833 0-15.996 7.008-15.996 15.649v18.943c0 8.643 7.164 15.65 15.996 15.65h12.693c4.617 31.042 28.211 55.981 58.761 62.929v27.993c0 15.226 12.288 27.568 27.445 27.568s27.445-12.343 27.445-27.568v-27.993c30.549-6.948 54.143-31.887 58.76-62.929h12.695c8.835 0 15.995-7.007 15.995-15.65v-18.943c.001-8.641-7.159-15.648-15.994-15.648z" fill="#ffcdbe"/><path d="m182.849 40.546c-48.071 0-87.038 17.66-87.038 64.994v46.24c0-47.334 38.967-64.994 87.038-64.994 48.068 0 87.035 17.66 87.035 64.994v-46.24c0-47.334-38.967-64.994-87.035-64.994z" fill="#fda613"/><path d="m127.273 98.045c3.482-36.839 32.984-53.455 71.133-56.835-5.048-.447-10.247-.664-15.558-.664-48.071 0-87.038 17.66-87.038 64.994v46.24c0-26.528 12.241-43.733 31.463-53.735z" fill="#fa8701"/><path d="m282.163 295.216h-71.871v9.053c0 15.226-12.288 27.568-27.445 27.568s-27.445-12.343-27.445-27.568v-9.053h-71.868c-21.243 0-38.528 17.065-38.528 38.037v54.122h275.682v-54.122c.001-20.973-17.284-38.037-38.525-38.037z" fill="#fff"/><path d="m125.528 295.216h-41.994c-21.243 0-38.528 17.065-38.528 38.037v54.122h41.994v-54.122c0-20.973 17.285-38.037 38.528-38.037z" fill="#d8e6eb"/><path d="m180.11 304.269v-26.055h-7.403c-5.951 0-11.742-.673-17.305-1.939v27.993c0 15.226 12.288 27.568 27.445 27.568 4.445 0 8.64-1.068 12.354-2.953-8.95-4.54-15.091-13.854-15.091-24.614z" fill="#ffaf9d"/><path d="m182.847 249.592c-16.176 0-29.336-13.221-29.336-29.469 0-1.879 1.515-3.4 3.385-3.4h51.902c1.869 0 3.385 1.521 3.385 3.4.001 16.248-13.161 29.469-29.336 29.469z" fill="#ef7280"/><ellipse cx="363.363" cy="429.036" fill="#fd646f" rx="15.349" ry="15.418"/><path d="m471 215.145c0 2.75-2.25 5-5 5h-112.985c-2.75 0-5-2.25-5-5v-68.515c0-2.75 2.25-5 5-5h112.985c2.75 0 5 2.25 5 5z" fill="#fff"/><path d="m380 215.145v-14.5h-2.649c-4.143 0-7.5-3.358-7.5-7.5s3.357-7.5 7.5-7.5h2.649v-10.42h-2.649c-4.143 0-7.5-3.358-7.5-7.5s3.357-7.5 7.5-7.5h2.649v-13.595c0-2.75 2.25-5 5-5h-31.985c-2.75 0-5 2.25-5 5v68.515c0 2.75 2.25 5 5 5h31.985c-2.75 0-5-2.25-5-5z" fill="#d8e6eb"/><path d="m471 321.146c0 2.75-2.25 5-5 5h-112.985c-2.75 0-5-2.25-5-5v-68.515c0-2.75 2.25-5 5-5h112.985c2.75 0 5 2.25 5 5z" fill="#fee567"/><path d="m380 321.146v-14.5h-2.649c-4.143 0-7.5-3.358-7.5-7.5s3.357-7.5 7.5-7.5h2.649v-10.42h-2.649c-4.143 0-7.5-3.358-7.5-7.5s3.357-7.5 7.5-7.5h2.649v-13.595c0-2.75 2.25-5 5-5h-31.985c-2.75 0-5 2.25-5 5v68.515c0 2.75 2.25 5 5 5h31.985c-2.75 0-5-2.25-5-5z" fill="#e7b700"/><path d="m15 118.552v261.323h22.506v-46.622c0-2.253.172-4.467.494-6.633v-208.068c0-.864.123-1.699.331-2.5h-20.831c-1.355 0-2.5 1.145-2.5 2.5z" fill="#01bff9"/><path d="m103.31 202.196c0 37.018 29.892 67.253 67.093 68.46-25.728-12.289-43.477-38.32-43.477-68.46v-50.416c0-29.121 14.755-47.004 37.3-56.46-15.765 1.821-28.986 6.04-38.809 12.483-14.669 9.622-22.106 24.417-22.106 43.976v50.417z" fill="#ffaf9d"/><path d="m494.5 101.052h-217.233c-2.188-43.293-36.319-68.006-94.418-68.006-58.1 0-92.234 24.713-94.421 68.006h-70.928c-9.649 0-17.5 7.85-17.5 17.5v342.902c0 9.649 7.851 17.5 17.5 17.5h477c9.649 0 17.5-7.851 17.5-17.5v-342.902c0-9.65-7.851-17.5-17.5-17.5zm-217.116 101.144v-31.593h4.364c4.685 0 8.495 3.656 8.495 8.149v18.943c0 4.494-3.811 8.15-8.495 8.15h-4.458c.053-1.21.094-2.425.094-3.649zm-174.074-96.656c0-19.559 7.438-34.354 22.106-43.976 13.482-8.844 33.341-13.518 57.432-13.518 24.089 0 43.948 4.674 57.43 13.518 14.668 9.622 22.106 24.417 22.106 43.976v1.978c-15.539-18.291-42.714-28.231-79.535-28.231-36.823 0-63.999 9.941-79.538 28.232v-1.979zm0 46.24c0-19.559 7.438-34.354 22.106-43.976 13.482-8.844 33.341-13.518 57.432-13.518 24.089 0 43.948 4.674 57.43 13.518 14.668 9.622 22.106 24.417 22.106 43.976v50.416c0 37.781-31.13 68.518-69.395 68.518h-20.282c-38.266 0-69.397-30.737-69.397-68.518zm99.482 133.352v19.136c0 11.066-8.947 20.068-19.945 20.068s-19.945-9.002-19.945-20.068v-19.137c3.219.371 6.487.582 9.805.582h20.282c3.318.001 6.585-.211 9.803-.581zm-114.388-79.285h-4.456c-4.685 0-8.496-3.656-8.496-8.15v-18.943c0-4.494 3.812-8.149 8.496-8.149h4.362v31.593c0 1.222.041 2.437.094 3.649zm-73.404-87.295c0-1.355 1.145-2.5 2.5-2.5h70.81v39.552h-4.362c-12.956 0-23.497 10.385-23.497 23.149v18.943c0 12.765 10.541 23.15 23.497 23.15h6.51c6.738 29.107 28.868 52.468 57.444 61.181v5.688h-64.368c-25.38 0-46.028 20.428-46.028 45.537v46.622h-22.506zm482 261.323h-45c-4.143 0-7.5 3.358-7.5 7.5s3.357 7.5 7.5 7.5h45v66.579c0 1.355-1.145 2.5-2.5 2.5h-477c-1.355 0-2.5-1.145-2.5-2.5v-66.579h402c4.143 0 7.5-3.358 7.5-7.5s-3.357-7.5-7.5-7.5h-88.811v-46.622c0-25.109-20.647-45.537-46.025-45.537h-15.164c-4.143 0-7.5 3.358-7.5 7.5s3.357 7.5 7.5 7.5h15.163c17.107 0 31.025 13.699 31.025 30.537v46.622h-260.682v-46.622c0-16.838 13.919-30.537 31.028-30.537h64.368v1.553c0 19.337 15.676 35.068 34.945 35.068s34.945-15.731 34.945-35.068v-1.553h14.208c4.142 0 7.5-3.358 7.5-7.5s-3.358-7.5-7.5-7.5h-14.208v-5.688c28.576-8.713 50.706-32.073 57.444-61.181h6.512c12.955 0 23.495-10.385 23.495-23.15v-18.943c0-12.765-10.54-23.149-23.495-23.149h-4.364v-3.823-35.729h217.116c1.355 0 2.5 1.145 2.5 2.5z"/><path d="m180.33 194.753h10.515c4.142 0 7.5-3.358 7.5-7.5s-3.358-7.5-7.5-7.5h-7.918v-17.317c0-4.142-3.358-7.5-7.5-7.5s-7.5 3.358-7.5 7.5v19.978c-.001 6.803 5.563 12.339 12.403 12.339z"/><path d="m136.223 180.8c4.142 0 7.5-3.358 7.5-7.5v-17.496c0-4.142-3.358-7.5-7.5-7.5s-7.5 3.358-7.5 7.5v17.496c0 4.142 3.358 7.5 7.5 7.5z"/><path d="m229.472 180.8c4.142 0 7.5-3.358 7.5-7.5v-17.496c0-4.142-3.358-7.5-7.5-7.5s-7.5 3.358-7.5 7.5v17.496c0 4.142 3.358 7.5 7.5 7.5z"/><path d="m182.847 257.092c20.311 0 36.836-16.584 36.836-36.969 0-6.011-4.883-10.9-10.885-10.9h-51.902c-6.002 0-10.885 4.89-10.885 10.9 0 20.385 16.525 36.969 36.836 36.969zm21.455-32.869c-1.913 10.162-10.806 17.869-21.455 17.869-10.648 0-19.541-7.708-21.455-17.869z"/><path d="m363.363 406.118c-9.98 0-18.48 6.454-21.586 15.418h-216.661c-4.142 0-7.5 3.358-7.5 7.5s3.358 7.5 7.5 7.5h216.661c3.105 8.964 11.605 15.418 21.586 15.418s18.48-6.454 21.586-15.418h80.352c4.143 0 7.5-3.358 7.5-7.5s-3.357-7.5-7.5-7.5h-80.352c-3.105-8.964-11.605-15.418-21.586-15.418zm0 30.836c-4.328 0-7.849-3.552-7.849-7.918s3.521-7.918 7.849-7.918 7.849 3.552 7.849 7.918-3.521 7.918-7.849 7.918z"/><circle cx="89.575" cy="429.036" r="7.5"/><circle cx="55.5" cy="429.036" r="7.5"/><path d="m466 134.131h-112.985c-6.892 0-12.5 5.607-12.5 12.5v68.515c0 6.893 5.608 12.5 12.5 12.5h112.985c6.893 0 12.5-5.607 12.5-12.5v-18.146c0-4.142-3.357-7.5-7.5-7.5s-7.5 3.358-7.5 7.5v15.645h-107.985v-63.515h107.985v12.869c0 4.142 3.357 7.5 7.5 7.5s7.5-3.358 7.5-7.5v-15.369c0-6.892-5.607-12.499-12.5-12.499z"/><path d="m441.664 160.226h-64.314c-4.143 0-7.5 3.358-7.5 7.5s3.357 7.5 7.5 7.5h64.314c4.143 0 7.5-3.358 7.5-7.5s-3.357-7.5-7.5-7.5z"/><path d="m441.664 185.645h-64.314c-4.143 0-7.5 3.358-7.5 7.5s3.357 7.5 7.5 7.5h64.314c4.143 0 7.5-3.358 7.5-7.5s-3.357-7.5-7.5-7.5z"/><path d="m466 240.131h-112.985c-6.892 0-12.5 5.607-12.5 12.5v68.515c0 6.893 5.608 12.5 12.5 12.5h112.985c6.893 0 12.5-5.607 12.5-12.5v-68.515c0-6.893-5.607-12.5-12.5-12.5zm-2.5 78.515h-107.985v-63.515h107.985z"/><path d="m377.351 281.226h64.314c4.143 0 7.5-3.358 7.5-7.5s-3.357-7.5-7.5-7.5h-64.314c-4.143 0-7.5 3.358-7.5 7.5s3.357 7.5 7.5 7.5z"/><path d="m377.351 306.646h64.314c4.143 0 7.5-3.358 7.5-7.5s-3.357-7.5-7.5-7.5h-64.314c-4.143 0-7.5 3.358-7.5 7.5s3.357 7.5 7.5 7.5z"/><path d="m471 347.646h-122.985c-4.142 0-7.5 3.358-7.5 7.5s3.358 7.5 7.5 7.5h122.985c4.143 0 7.5-3.358 7.5-7.5 0-4.143-3.357-7.5-7.5-7.5z"/></svg>