<svg id="Capa_1" enable-background="new 0 0 512 512" height="512" viewBox="0 0 512 512" width="512" xmlns="http://www.w3.org/2000/svg"><g><path d="m401.499 411.499-20.998 21-19.501-19.2v98.701h-240l30-30h180v-68.701l-19.501 19.2-20.998-21 55.499-56.8z" fill="#80aaff"/><path d="m361 0v75h-30v-45h-240v189.699l19.501-19.2 20.998 21-55.499 55.8-55.499-55.8 20.998-21 19.501 19.2v-219.699z" fill="#9ef"/><path d="m346 0h15v75h-15z" fill="#6cf"/><path d="m401.499 411.499-20.998 21-19.501-19.2v98.701h-15v-157.301z" fill="#6680ff"/><path d="m512 121v210h-331v-210l30-31h270z" fill="#f3f5f9"/><path d="m512 121v210h-166v-241h135z" fill="#e1e6f0"/><path d="m181 60h331v61h-331z" fill="#475953"/><path d="m301 181h150v30h-150z" fill="#e1e6f0"/><path d="m301 241h150v30h-150z" fill="#e1e6f0"/><path d="m241 181h30v30h-30z" fill="#6cf"/><path d="m241 241h30v30h-30z" fill="#6cf"/><path d="m346 181h105v30h-105z" fill="#cfd7e6"/><path d="m346 241h105v30h-105z" fill="#cfd7e6"/><path d="m346 60h166v61h-166z" fill="#33403c"/><path d="m91 437h30v60h-30z" fill="#475953"/><path d="m106 437h15v60h-15z" fill="#33403c"/><path d="m61 482h90v30h-90z" fill="#475953"/><path d="m106 482h45v30h-45z" fill="#33403c"/><path d="m0 301v151h211v-151z" fill="#475953"/><path d="m106 301h105v151h-105z" fill="#33403c"/><path d="m30 331h151v91h-151z" fill="#9ef"/><path d="m106 331h75v91h-75z" fill="#6cf"/></g></svg>