<svg height="512" viewBox="0 0 128 128" width="512" xmlns="http://www.w3.org/2000/svg"><path d="m119.337 13.151h-52.337v-5.901a1 1 0 0 0 -2 0v5.9h-52.337a5.006 5.006 0 0 0 -5 5v95.7a5.006 5.006 0 0 0 5 5h52.337v5.9a1 1 0 0 0 2 0v-5.9h52.337a5.006 5.006 0 0 0 5-5v-95.7a5.006 5.006 0 0 0 -5-4.999z" fill="#e6e7e8"/><path d="m4.663 26.163h114.674a0 0 0 0 1 0 0v83.687a4 4 0 0 1 -4 4h-106.674a4 4 0 0 1 -4-4v-83.687a0 0 0 0 1 0 0z" fill="#d4fbff"/><path d="m62 113.849h53.337a4 4 0 0 0 4-4v-83.686h-57.337z" fill="#ffd7e5"/><path d="m4.663 14.151v12.012h114.674v-12.012a4 4 0 0 0 -4-4h-106.674a4 4 0 0 0 -4 4z" fill="#0089ef"/><path d="m115.337 10.151h-53.337v16.012h57.337v-12.012a4 4 0 0 0 -4-4z" fill="#fa759e"/><path d="m115.337 10.151h-106.674a4 4 0 0 0 -4 4v3a4 4 0 0 1 4-4h106.674a4 4 0 0 1 4 4v-3a4 4 0 0 0 -4-4z" fill="#fff"/><circle cx="40.281" cy="18.579" fill="#fff" r="3.257"/><circle cx="28.45" cy="18.579" fill="#d4fbff" r="3.257"/><circle cx="16.618" cy="18.579" fill="#fa759e" r="3.257"/><path d="m42.821 60.5h-6.809a1 1 0 0 1 0-2h6.809a1 1 0 0 1 0 2z" fill="#fa759e"/><path d="m30.012 60.5h-16.833a1 1 0 0 1 0-2h16.833a1 1 0 0 1 0 2z" fill="#fa759e"/><path d="m42.821 81.5h-10.309a1 1 0 0 1 0-2h10.309a1 1 0 0 1 0 2z" fill="#fa759e"/><path d="m28.512 81.5h-15.333a1 1 0 0 1 0-2h15.333a1 1 0 0 1 0 2z" fill="#fa759e"/><path d="m42.821 102.5h-10.309a1 1 0 0 1 0-2h10.309a1 1 0 0 1 0 2z" fill="#fa759e"/><path d="m28.512 102.5h-15.333a1 1 0 0 1 0-2h15.333a1 1 0 0 1 0 2z" fill="#fa759e"/><rect fill="#6dc9f7" height="41.953" rx="2" transform="matrix(0 1 -1 0 135.168 -44.832)" width="19.6" x="80.2" y="24.192"/><rect fill="#d4fbff" height="41.953" rx="2" transform="matrix(0 1 -1 0 164.802 -15.198)" width="28.817" x="75.591" y="53.825"/><g fill="#3a2c60"><path d="m22.423 50.511a1.251 1.251 0 0 0 .924-.372 1.282 1.282 0 0 0 .372-.948 1.1 1.1 0 0 0 -.18-.612 1.132 1.132 0 0 0 -.516-.42l-7.848-3.144 7.848-3.144a1.062 1.062 0 0 0 .7-1.032 1.268 1.268 0 0 0 -.36-.936 1.236 1.236 0 0 0 -.912-.36 1.852 1.852 0 0 0 -.7.145l-8.472 3.456a1.965 1.965 0 0 0 -.936.743 1.991 1.991 0 0 0 -.336 1.128 1.97 1.97 0 0 0 .336 1.14 2.15 2.15 0 0 0 .936.756l8.472 3.456a1.817 1.817 0 0 0 .672.144z"/><path d="m26.263 53.7a1.448 1.448 0 0 0 .828-.252 1.306 1.306 0 0 0 .515-.756l5.521-17.279a1.926 1.926 0 0 0 .071-.5 1.2 1.2 0 0 0 -.431-.948 1.5 1.5 0 0 0 -1.008-.372 1.394 1.394 0 0 0 -1.345 1.007l-5.5 17.28a1.875 1.875 0 0 0 -.072.5 1.2 1.2 0 0 0 .431.949 1.472 1.472 0 0 0 .99.371z"/><path d="m34.531 48.579a1.1 1.1 0 0 0 -.18.612 1.282 1.282 0 0 0 .372.948 1.248 1.248 0 0 0 .923.372 1.813 1.813 0 0 0 .672-.144l8.473-3.456a2.156 2.156 0 0 0 .936-.756 1.969 1.969 0 0 0 .335-1.14 1.99 1.99 0 0 0 -.335-1.128 1.97 1.97 0 0 0 -.936-.743l-8.473-3.456a1.843 1.843 0 0 0 -.7-.145 1.236 1.236 0 0 0 -.912.36 1.268 1.268 0 0 0 -.36.936 1.062 1.062 0 0 0 .7 1.032l7.854 3.144-7.848 3.144a1.122 1.122 0 0 0 -.521.42z"/><path d="m119.337 41.979a1 1 0 0 0 -1 1v8.521a1 1 0 0 0 2 0v-8.521a1 1 0 0 0 -1-1z"/><path d="m115.337 9.151h-52.337v-5.901a1 1 0 0 0 -2 0v5.9h-52.337a5.006 5.006 0 0 0 -5 5v95.7a5.006 5.006 0 0 0 5 5h52.337v5.9a1 1 0 0 0 2 0v-5.9h52.337a5.006 5.006 0 0 0 5-5v-54.183a1 1 0 0 0 -2 0v54.182a3 3 0 0 1 -3 3h-52.337v-85.686h55.337v11.38a1 1 0 0 0 2 0v-24.392a5.006 5.006 0 0 0 -5-5zm-109.674 5a3 3 0 0 1 3-3h52.337v14.012h-55.337zm3 98.7a3 3 0 0 1 -3-3v-82.688h55.337v38.337h-9.489a1 1 0 1 0 0 2h9.489v5h-40.821a1 1 0 0 0 0 2h40.821v12h-19.489a1 1 0 1 0 0 2h19.489v5h-13.4a1 1 0 1 0 0 2h13.4v17.349zm54.337-87.688v-14.012h52.337a3 3 0 0 1 3 3v11.012z"/><path d="m45.345 65.5h-25.166a1 1 0 0 0 0 2h25.166a1 1 0 0 0 0-2z"/><path d="m20.179 88.5h15.166a1 1 0 0 0 0-2h-15.166a1 1 0 0 0 0 2z"/><path d="m42.512 93.5h-22.333a1 1 0 0 0 0 2h22.333a1 1 0 0 0 0-2z"/><path d="m111.977 37.368a3 3 0 0 0 -3-3h-37.953a3 3 0 0 0 -3 3v15.6a3 3 0 0 0 3 3h37.953a3 3 0 0 0 3-3zm-2 15.6a1 1 0 0 1 -1 1h-37.953a1 1 0 0 1 -1-1v-15.6a1 1 0 0 1 1-1h37.953a1 1 0 0 1 1 1z"/><path d="m111.977 87.21v-24.817a3 3 0 0 0 -3-3h-37.953a3 3 0 0 0 -3 3v24.817a3 3 0 0 0 3 3h37.953a3 3 0 0 0 3-3zm-40.953-25.817h37.953a1 1 0 0 1 1 1v15.326l-5.394-3.865a1 1 0 0 0 -1.213.036l-5.565 4.51-14.044-10.371a1 1 0 0 0 -1.2.011l-12.535 9.6v-15.247a1 1 0 0 1 .998-1zm37.953 26.817h-37.953a1 1 0 0 1 -1-1v-7.05l13.153-10.075 14.062 10.386a1 1 0 0 0 1.224-.028l5.575-4.519 5.939 4.256v7.03a1 1 0 0 1 -1 1z"/><path d="m97.25 72.583a4.5 4.5 0 1 0 -4.5-4.5 4.5 4.5 0 0 0 4.5 4.5zm0-7a2.5 2.5 0 1 1 -2.5 2.5 2.5 2.5 0 0 1 2.5-2.5z"/><path d="m109.291 95.2h-38.581a1 1 0 1 0 0 2h38.581a1 1 0 0 0 0-2z"/><path d="m109.291 103.632h-38.581a1 1 0 1 0 0 2h38.581a1 1 0 0 0 0-2z"/></g></svg>